<?xml version="1.0" encoding="UTF-8"?>
<svg xmlns="http://www.w3.org/2000/svg" id="Filled" width="512" height="512" viewBox="0 0 512 512"><g><g><path d="M448,176H168V64H371.7592a80,80,0,0,1,79.196,91.3137Z" style="fill:#fb8656"/><path d="M442,176H422.1992a90.0544,90.0544,0,0,0-80.2966-71.6578,20.0549,20.0549,0,0,0-13.5344,3.7537L312,120l-10.1421-10.1422A20,20,0,0,0,287.7158,104H118a30,30,0,0,0-30,30v42H70a30,30,0,0,0-30,30v20a30.01,30.01,0,0,0,24,29.4v.6H88.1316A60.0033,60.0033,0,0,0,148,312H364a60.0033,60.0033,0,0,0,59.8684-56H442a30,30,0,0,0,30-30V206A30,30,0,0,0,442,176Z" style="fill:#ffd4cf"/><path d="M200,168c0-57.4376,68.0527-104,152-104h0a40,40,0,0,0-40-40H184A120,120,0,0,0,64,144v0a80,80,0,0,0,80,80h0l16-16,16,16h47.895C208.77,207.8352,200,188.6183,200,168Z" style="fill:#fdbf67"/></g><path d="M378,312.2433H360V312H152v.2433H134a30,30,0,0,0-30,30V416h48v72H360V416h48V342.2433A30,30,0,0,0,378,312.2433Z" style="fill:#f15a57"/><path d="M336,488H176l15.094-10.0627A20,20,0,0,0,200,461.2963V352H312V461.2963a20,20,0,0,0,8.906,16.641Z" style="fill:#fefbfb"/><path d="M104,416h48a0,0,0,0,1,0,0v56a0,0,0,0,1,0,0h-8a40,40,0,0,1-40-40V416a0,0,0,0,1,0,0Z" style="fill:#ffd4cf"/><path d="M400,416h8a0,0,0,0,1,0,0v56a0,0,0,0,1,0,0H360a0,0,0,0,1,0,0V456A40,40,0,0,1,400,416Z" transform="translate(768 888) rotate(-180)" style="fill:#ffd4cf"/><path d="M200,312H312a0,0,0,0,1,0,0v14a50,50,0,0,1-50,50H250a50,50,0,0,1-50-50V312A0,0,0,0,1,200,312Z" style="fill:#ffd4cf"/><path d="M310.99,336.0458A50.2142,50.2142,0,0,0,312,326V312H200v14a50.2142,50.2142,0,0,0,1.01,10.0458Z" style="fill:#fbb8b0"/><g><path d="M288,248H272a16,16,0,0,1-32,0H224a32,32,0,0,0,64,0Z"/><path d="M328,192a24.0272,24.0272,0,0,1,24,24h16a40,40,0,0,0-80,0h16A24.0272,24.0272,0,0,1,328,192Z"/><path d="M456.7959,170.9991l2.0791-14.5543A88,88,0,0,0,371.7588,56h-12.426A48.0781,48.0781,0,0,0,312,16H184A127.8,127.8,0,0,0,70.7686,84.2612l14.1445,7.4776A111.8386,111.8386,0,0,1,184,32h10.0776A128.1013,128.1013,0,0,0,128,144a87.18,87.18,0,0,0,8.8037,38.4082l14.3926-6.9912A71.3,71.3,0,0,1,144,144,112.1271,112.1271,0,0,1,256,32h56a32.0566,32.0566,0,0,1,31.0312,24.1709c-38.8388,1.4863-75.14,12.6055-103.0292,31.6875C209.0479,109.0381,192,137.5,192,168c0,16.7705,5.2363,33.1094,15.2793,48H179.3135l-13.6563-13.6567a8.001,8.001,0,0,0-11.3144,0l-13.584,13.5844A72.0873,72.0873,0,0,1,72,144a111.5385,111.5385,0,0,1,7.4639-40.292L64.5361,97.95A127.465,127.465,0,0,0,56,144a87.7267,87.7267,0,0,0,3.7388,25.4079A38.0687,38.0687,0,0,0,32,206v20a38.0433,38.0433,0,0,0,38,38H81.06a68.1833,68.1833,0,0,0,32.1814,46.4277A37.9992,37.9992,0,0,0,96,342.2432V368h16V342.2432A22.2341,22.2341,0,0,1,134,320h58V458a22.0248,22.0248,0,0,1-22,22H160V408a8.1082,8.1082,0,0,0-.08-1.1313l-8-56-15.84,2.2626L143.9189,408H112V384H96v48a48.054,48.054,0,0,0,48,48v8a8,8,0,0,0,8,8H272V480H200.9675A37.7916,37.7916,0,0,0,208,458V365.9608A57.8427,57.8427,0,0,0,250,384h12a57.8427,57.8427,0,0,0,42-18.0392V458a37.7916,37.7916,0,0,0,7.0325,22H288v16h72a8,8,0,0,0,8-8v-8a48.054,48.054,0,0,0,48-48V342.2432a37.9992,37.9992,0,0,0-17.2417-31.8155A68.1833,68.1833,0,0,0,430.94,264H442a38.0433,38.0433,0,0,0,38-38V206A38.0588,38.0588,0,0,0,456.7959,170.9991ZM80,248H70a22.0248,22.0248,0,0,1-22-22V206a22.037,22.037,0,0,1,17.8318-21.6039A88.4365,88.4365,0,0,0,80,204.339Zm64,216a32.0364,32.0364,0,0,1-32-32v-8h32ZM304,326a42.0475,42.0475,0,0,1-42,42H250a42.0475,42.0475,0,0,1-42-42v-6h96Zm96,106a32.0364,32.0364,0,0,1-32,32V424h32Zm0-24H368.0811l7.8388-54.8687-15.84-2.2626-8,56A8.1082,8.1082,0,0,0,352,408v72H342a22.0248,22.0248,0,0,1-22-22V320h58a22.2341,22.2341,0,0,1,22,22.2432Zm16-156a52.0589,52.0589,0,0,1-52,52v.2432H148V304a52.0589,52.0589,0,0,1-52-52V217.7261A87.4875,87.4875,0,0,0,144,232a8.0007,8.0007,0,0,0,5.6572-2.3433L160,219.314l10.3428,10.3427A8.0007,8.0007,0,0,0,176,232h47.8945a8,8,0,0,0,5.8418-13.4658C215.5166,203.3364,208,185.8618,208,168c0-20.8818,10.0525-40.2277,27.1006-56h52.6152a11.92,11.92,0,0,1,8.4854,3.5151l10.1426,10.1416a7.9968,7.9968,0,0,0,10.3613.813l16.3691-11.9043a12.049,12.049,0,0,1,8.1348-2.2534A82.01,82.01,0,0,1,416,194Zm12.5066-84a98.0733,98.0733,0,0,0-85.9109-71.6274,28.0485,28.0485,0,0,0-18.9326,5.2539l-10.84,7.8833-5.3086-5.3081A27.81,27.81,0,0,0,287.7158,96H256.8516C282.2422,81.07,315.562,72,352,72h19.7588a72,72,0,0,1,71.2764,82.1821L441.0615,168ZM464,226a22.0248,22.0248,0,0,1-22,22H432V184h10a22.0248,22.0248,0,0,1,22,22Z"/></g></g></svg>
