<svg id="Filled" height="512" viewBox="0 0 512 512" width="512" xmlns="http://www.w3.org/2000/svg"><g><g><path d="m60.6748 144.4106 3.3252 31.5894h384l3.3252-31.5894a109 109 0 0 0 -108.4011-120.4106h-173.8482a109 109 0 0 0 -108.4011 120.4106z" fill="#80303e"/><path d="m442 176h-18v-22a50 50 0 0 0 -50-50h-48.7207a90 90 0 0 0 -63.64 26.36l-5.6393 5.64-5.64-5.64a90 90 0 0 0 -63.64-26.36h-48.72a50 50 0 0 0 -50 50v22h-18a30 30 0 0 0 -30 30v20a30 30 0 0 0 30 30h18.1316a60.0033 60.0033 0 0 0 59.8684 56h216a60.0033 60.0033 0 0 0 59.8684-56h18.1316a30 30 0 0 0 30-30v-20a30 30 0 0 0 -30-30z" fill="#ffd4cf"/><path d="m408 354.1407v-11.8973a30 30 0 0 0 -30-30h-18v-.2434h-208v.2434h-18a30 30 0 0 0 -30 30v11.8973a15.9939 15.9939 0 0 0 -8 13.8593 15.994 15.994 0 0 0 8 13.8593v2.1407h48v104h208v-104h48v-2.1407a15.994 15.994 0 0 0 8-13.8593 15.9939 15.9939 0 0 0 -8-13.8593z" fill="#333"/><path d="m336 488h-160l11.3174-8a30 30 0 0 0 12.6826-24.4975v-127.4815h112v127.9235a30 30 0 0 0 13.359 24.9615z" fill="#fcfcfc"/><path d="m152 384h-48v48a40 40 0 0 0 40 40h8z" fill="#ffd4cf"/><path d="m400 384h8a0 0 0 0 1 0 0v88a0 0 0 0 1 0 0h-48a0 0 0 0 1 0 0v-48a40 40 0 0 1 40-40z" fill="#ffd4cf" transform="matrix(-1 0 0 -1 768 856)"/><path d="m152 264h-22a50 50 0 0 1 -50-50v-16a30 30 0 0 1 30-30h106a16 16 0 0 1 16 16 80 80 0 0 1 -80 80z" fill="#4d4d4d"/><path d="m360 264h22a50 50 0 0 0 50-50v-16a30 30 0 0 0 -30-30h-106a16 16 0 0 0 -16 16 80 80 0 0 0 80 80z" fill="#4d4d4d"/><path d="m256 376-64-64h128z" fill="#ffd4cf"/><path d="m296.236 335.764 23.764-23.764h-128l23.764 23.764z" fill="#fbb8b0"/></g><g><path d="m456.58 170.9089 2.7011-25.6609a117 117 0 0 0 -116.3573-129.248h-173.8476a117 117 0 0 0 -116.3574 129.248l2.7012 25.6609a38.06 38.06 0 0 0 -23.42 35.0911v20a38.0433 38.0433 0 0 0 38 38h11.06a68.1829 68.1829 0 0 0 32.1814 46.4276 37.9992 37.9992 0 0 0 -17.2414 31.8156v7.873a23.99 23.99 0 0 0 0 35.7677v46.1161a48.0547 48.0547 0 0 0 48 48v8a8 8 0 0 0 8 8h208a8 8 0 0 0 8-8v-8a48.0547 48.0547 0 0 0 48-48v-46.1161a23.99 23.99 0 0 0 0-35.7677v-7.873a37.9992 37.9992 0 0 0 -17.2417-31.8156 68.1829 68.1829 0 0 0 32.1817-46.4276h11.06a38.0433 38.0433 0 0 0 38-38v-20a38.06 38.06 0 0 0 -23.42-35.0911zm-362.5673-105.4851a101.1507 101.1507 0 0 1 75.0635-33.4238h173.8476a101 101 0 0 1 100.4453 111.5732l-2.5712 24.4268h-8.7979v-14a58.0656 58.0656 0 0 0 -58-58h-48.7207a97.3556 97.3556 0 0 0 -69.2793 28.6865 97.3535 97.3535 0 0 0 -69.2793-28.6865h-48.7207a58.0656 58.0656 0 0 0 -58 58v14h-8.7979l-2.5712-24.4268a101.15 101.15 0 0 1 25.3818-78.1494zm321.9873 97.2486a37.8019 37.8019 0 0 0 -14-2.6724h-292a37.8019 37.8019 0 0 0 -14 2.6724v-8.6724a42.0475 42.0475 0 0 1 42-42h48.7207a81.4608 81.4608 0 0 1 57.9824 24.0171l5.64 5.64a8.001 8.001 0 0 0 11.3144 0l5.64-5.64a81.4608 81.4608 0 0 1 57.9818-24.0171h48.7207a42.0475 42.0475 0 0 1 42 42zm-328 51.3276v-16a22.0248 22.0248 0 0 1 22-22h106a8.0092 8.0092 0 0 1 8 8 72.0812 72.0812 0 0 1 -72 72h-22a42.0475 42.0475 0 0 1 -42-42zm150.6289-38h34.7422a23.8922 23.8922 0 0 0 -1.3711 8 88.18 88.18 0 0 0 1.46 16.0133 48.3238 48.3238 0 0 0 -34.92 0 88.18 88.18 0 0 0 1.46-16.0133 23.8922 23.8922 0 0 0 -1.3711-8zm49.3711 8a8.0092 8.0092 0 0 1 8-8h106a22.0248 22.0248 0 0 1 22 22v16a42.0475 42.0475 0 0 1 -42 42h-22a72.0812 72.0812 0 0 1 -72-72zm-240 42v-20a22.0248 22.0248 0 0 1 22-22h4.6724a37.8023 37.8023 0 0 0 -2.6724 14v16a57.6465 57.6465 0 0 0 8 29.37v4.63h-10a22.0248 22.0248 0 0 1 -22-22zm64 206v-40h32v72a32.0364 32.0364 0 0 1 -32-32zm48 48v-112a7.9964 7.9964 0 0 0 -.8447-3.5776l-8-16-14.3106 7.1552 7.1553 14.3111v6.1113h-34.5527a7.981 7.981 0 0 0 -1.4414-1.0654 8.0052 8.0052 0 0 1 0-13.8692 8.001 8.001 0 0 0 3.9941-6.9248v-11.8974a22.2341 22.2341 0 0 1 22-22.2432h54.686l3.314 3.314v134.686a22.0248 22.0248 0 0 1 -22 22zm48-140.686 42.3428 42.3427a8 8 0 0 0 11.3144 0l42.3428-42.3427v118.686a37.7913 37.7913 0 0 0 7.0325 22h-110.065a37.7913 37.7913 0 0 0 7.0325-22zm48 25.3725-44.686-44.6865h89.372zm112 99.3135v-72h32v40a32.0364 32.0364 0 0 1 -32 32zm35.9941-102.9346a8.0052 8.0052 0 0 1 0 13.8692 7.981 7.981 0 0 0 -1.4414 1.0654h-34.5527v-6.1113l7.1553-14.3111-14.3106-7.1552-8 16a7.9964 7.9964 0 0 0 -.8447 3.5776v112h-10a22.0248 22.0248 0 0 1 -22-22v-134.686l3.314-3.314h54.686a22.2341 22.2341 0 0 1 22 22.2432v11.8974a8.001 8.001 0 0 0 3.9941 6.9248zm-39.9941-57.0654h-216a52.0873 52.0873 0 0 1 -51.1123-42.4045 57.677 57.677 0 0 0 33.1123 10.4045h22a88.1191 88.1191 0 0 0 79.8232-50.9673l9.8668-4.9327a32.1516 32.1516 0 0 1 28.621 0l9.8663 4.9331a88.1191 88.1191 0 0 0 79.8227 50.9669h22a57.677 57.677 0 0 0 33.1123-10.4045 52.0873 52.0873 0 0 1 -51.1123 42.4045zm100-78a22.0248 22.0248 0 0 1 -22 22h-10v-4.63a57.6465 57.6465 0 0 0 8-29.37v-16a37.8023 37.8023 0 0 0 -2.6724-14h4.6724a22.0248 22.0248 0 0 1 22 22z"/><path d="m256 264a16.0183 16.0183 0 0 1 -16-16h-16a32 32 0 0 0 64 0h-16a16.0183 16.0183 0 0 1 -16 16z"/><path d="m106.142 204h40v16h-40z" transform="matrix(.707 -.707 .707 .707 -112.963 151.3)"/><path d="m152.285 204h40v16h-40z" transform="matrix(.707 -.707 .707 .707 -99.447 183.929)"/><path d="m319.715 204h40v16h-40z" transform="matrix(.707 -.707 .707 .707 -50.402 302.325)"/><path d="m365.858 204h40v16h-40z" transform="matrix(.707 -.707 .707 .707 -36.886 334.954)"/></g></g></svg>