<?xml version="1.0" encoding="UTF-8"?>
<svg xmlns="http://www.w3.org/2000/svg" id="Filled" width="512" height="512" viewBox="0 0 512 512"><g><g><g><g><path d="M442,176H424V144H88v32H70a30,30,0,0,0-30,30v20a30,30,0,0,0,30,30H88v-4a60,60,0,0,0,60,60H364a60,60,0,0,0,60-60v4h18a30,30,0,0,0,30-30V206A30,30,0,0,0,442,176Z" style="fill:#ffd4cf"/><path d="M88,128v24h6.6667L128,192s5.1353-25.6764,15.4059-40h9.859C163.0883,164.3534,168,184,168,184l32-32h13.467c9.224,12.5144,29.73,36.479,58.533,48,0,0,0-25.4653,5.6793-48H304l32,32s4.9117-19.6466,14.7351-32h17.859C378.8647,166.3236,384,192,384,192l33.3333-40H424V128Z" style="fill:#4d4d4d"/><path d="M408,354.1407V342.2434a30,30,0,0,0-30-30H360V312H152v.2434H134a30,30,0,0,0-30,30v11.8973A15.9939,15.9939,0,0,0,96,368h0a15.994,15.994,0,0,0,8,13.8593V384h48V488H360V384h48v-2.1407A15.994,15.994,0,0,0,416,368h0A15.9939,15.9939,0,0,0,408,354.1407Z" style="fill:#f15a57"/><polygon points="240 352 192 352 200 384 184 456 240 456 232 384 240 352" style="fill:#333"/><polygon points="328 456 312 384 320 352 272 352 280 384 272 456 328 456" style="fill:#333"/><path d="M152,384H104v48a40,40,0,0,0,40,40h8Z" style="fill:#ffd4cf"/><path d="M400,384h8a0,0,0,0,1,0,0v88a0,0,0,0,1,0,0H360a0,0,0,0,1,0,0V424A40,40,0,0,1,400,384Z" transform="translate(768 856) rotate(-180)" style="fill:#ffd4cf"/></g><path d="M434,112H406.594A110.0012,110.0012,0,0,0,298.816,24H213.184a110.0012,110.0012,0,0,0-107.778,88H78a30,30,0,0,0-30,30v2H464v-2A30,30,0,0,0,434,112Z" style="fill:#fdbf67"/><path d="M105.406,112H406.594a109.6817,109.6817,0,0,0-11.9286-32H117.3346A109.6817,109.6817,0,0,0,105.406,112Z" style="fill:#f15a57"/></g><rect x="232" y="400" width="48" height="32" style="fill:#fdbf67"/></g><g><path d="M442,168H432V152h32a8,8,0,0,0,8-8v-2a38.0433,38.0433,0,0,0-38-38H412.939a118.2551,118.2551,0,0,0-23.0933-45.0938L377.5078,69.0938Q378.69,70.5256,379.818,72H132.2637a102.29,102.29,0,0,1,80.92-40h85.6318a102.3041,102.3041,0,0,1,64.1519,22.7l10.0644-12.4385A118.3582,118.3582,0,0,0,298.8159,16H213.1841A118.0006,118.0006,0,0,0,99.0608,104H78a38.0433,38.0433,0,0,0-38,38v2a8,8,0,0,0,8,8H80v16H70a38.0433,38.0433,0,0,0-38,38v2H48v-2a22.0248,22.0248,0,0,1,22-22H80v64H70a22.0248,22.0248,0,0,1-22-22v-2H32v2a38.0433,38.0433,0,0,0,38,38H81.06a68.1829,68.1829,0,0,0,32.1814,46.4276A38,38,0,0,0,96,342.2432v7.873a23.99,23.99,0,0,0,0,35.7677V432a48.0543,48.0543,0,0,0,48,48v8a8,8,0,0,0,8,8H320V480H160V368a7.9964,7.9964,0,0,0-.8447-3.5776l-8-16-14.3106,7.1552L144,369.8887V376H109.4473a7.9986,7.9986,0,0,0-1.4414-1.0654,8.0052,8.0052,0,0,1,0-13.8692A8,8,0,0,0,112,354.1406V342.2432A22.2341,22.2341,0,0,1,134,320h26v16a40.0717,40.0717,0,0,0,29.397,38.573l2.3838,9.5353-15.59,70.1563A8,8,0,0,0,184,464h56a8,8,0,0,0,7.9512-8.8833L246.2715,440h19.457l-1.68,15.1167A8,8,0,0,0,272,464h56a8,8,0,0,0,7.81-9.7354l-15.59-70.1563,2.3838-9.5353A40.0717,40.0717,0,0,0,352,336V320h26a22.2341,22.2341,0,0,1,22,22.2432v11.8974a8,8,0,0,0,3.9941,6.9248,8.0052,8.0052,0,0,1,0,13.8692A7.9986,7.9986,0,0,0,402.5527,376H368v-6.1113l7.1553-14.3111-14.3106-7.1552-8,16A7.9964,7.9964,0,0,0,352,368V480H336v16h24a8,8,0,0,0,8-8v-8a48.0543,48.0543,0,0,0,48-48V385.8839a23.99,23.99,0,0,0,0-35.7677v-7.873a38,38,0,0,0-17.2417-31.8156A68.1829,68.1829,0,0,0,430.94,264H442a38.0433,38.0433,0,0,0,38-38V206A38.0433,38.0433,0,0,0,442,168ZM144,464a32.0361,32.0361,0,0,1-32-32V392h32Zm224,0V392h32v40A32.0361,32.0361,0,0,1,368,464ZM315.3137,152H340.936a95.6338,95.6338,0,0,0-8.5122,17.11Zm-193.15-64h267.69a102.39,102.39,0,0,1,6.4509,16H115.6934A100.9672,100.9672,0,0,1,122.1638,88ZM78,120H434a22.0393,22.0393,0,0,1,21.1685,16H56.8315A22.0393,22.0393,0,0,1,78,120Zm328.92,32-19.14,22.9683c-.67-2.14-1.4238-4.3985-2.2612-6.7022A101.0322,101.0322,0,0,0,378.1262,152Zm-137.4763,0a219.3088,219.3088,0,0,0-4.983,35.5938C246.0459,177.5016,231.9573,162.4844,223.5811,152Zm-80.7571,0-17.11,17.11A95.6338,95.6338,0,0,0,163.064,152Zm-54.8125,0a101.0322,101.0322,0,0,0-7.3924,16.2661c-.8374,2.3037-1.5913,4.562-2.2612,6.7022L105.08,152Zm68.3723,208h27.5078l-4,16H206.2461Zm-8.273,88,12.4444-56H224.84l6.2222,56Zm50.5207-24-1.7777-16h26.5678l-1.7777,16Zm37.7523-64h27.5078l-4,16H286.2461Zm-1.3081,88,6.2222-56h18.4223l12.4444,56ZM336,336a23.952,23.952,0,0,1-8.2849,18.1252l.0461-.1848A8,8,0,0,0,320,344H272a8,8,0,0,0-7.7612,9.94l7.6513,30.6053L271.0618,392H240.9382l-.8283-7.4543,7.6513-30.6053A8,8,0,0,0,240,344H192a8,8,0,0,0-7.7612,9.94l.0461.1848A23.952,23.952,0,0,1,176,336V320H336Zm28-32H148a52.0589,52.0589,0,0,1-52-52V166.0968l25.854,31.0248a8,8,0,0,0,13.9907-3.5528,154.3383,154.3383,0,0,1,5.6739-19.8349,79.8148,79.8148,0,0,1,6.9043-14.8566c5.5515,7.9065,9.8972,19.4458,11.8159,27.0631a7.9975,7.9975,0,0,0,2.57,4.1465A40.0086,40.0086,0,0,0,144,224h16a24,24,0,0,1,48,0h16a40.0174,40.0174,0,0,0-44.9976-39.6889l27.8164-27.8165c9.6731,13.2152,31.2879,38.5643,62.21,50.9331A8,8,0,0,0,280,200c0-.2828.0737-26.3062,5.946-48h6.74l32.1264,32.1263A40.0535,40.0535,0,0,0,288,224h16a24,24,0,0,1,48,0h16a40.0619,40.0619,0,0,0-24.6165-36.923,8.01,8.01,0,0,0,.3758-1.13c2.3894-9.486,8.5368-25.0417,16.0887-32.1081,7.2567,7.6714,13.6929,26.7249,16.3073,39.73a8,8,0,0,0,13.9907,3.5528L416,166.0968V252A52.0589,52.0589,0,0,1,364,304Zm100-78a22.0248,22.0248,0,0,1-22,22H432V184h10a22.0248,22.0248,0,0,1,22,22Z"/><path d="M256,264a16.0183,16.0183,0,0,1-16-16H224a32,32,0,0,0,64,0H272A16.0183,16.0183,0,0,1,256,264Z"/></g></g></svg>
