<?xml version="1.0" encoding="UTF-8"?>
<svg xmlns="http://www.w3.org/2000/svg" id="Filled" width="512" height="512" viewBox="0 0 512 512"><g><path d="M442,176H424V136H88v40H70a30,30,0,0,0-30,30v20a30,30,0,0,0,30,30H88.1316A60.0033,60.0033,0,0,0,148,312H364a60.0033,60.0033,0,0,0,59.8684-56H442a30,30,0,0,0,30-30V206A30,30,0,0,0,442,176Z" style="fill:#ffd4cf"/><path d="M292.0012,32A19.97,19.97,0,0,0,276,24H236a19.97,19.97,0,0,0-16.0012,8H169.7824A90,90,0,0,0,81.53,104.35L80,112H432l-1.53-7.65A90,90,0,0,0,342.2176,32Z" style="fill:#fb8656"/><path d="M408,354.1407V342.2434a30,30,0,0,0-30-30H360V312H152v.2434H134a30,30,0,0,0-30,30v11.8973A15.9939,15.9939,0,0,0,96,368h0a15.994,15.994,0,0,0,8,13.8593V384h48V488H360V384h48v-2.1407A15.994,15.994,0,0,0,416,368h0A15.9939,15.9939,0,0,0,408,354.1407Z" style="fill:#fdbf67"/><path d="M296,488H216l10.1421-10.1421A20,20,0,0,0,232,463.7157V368l-40-56H320l-40,56v95.7157a20,20,0,0,0,5.8579,14.1422Z" style="fill:#fffdfb"/><path d="M152,384H104v48a40,40,0,0,0,40,40h8Z" style="fill:#ffd4cf"/><path d="M400,384h8a0,0,0,0,1,0,0v88a0,0,0,0,1,0,0H360a0,0,0,0,1,0,0V424A40,40,0,0,1,400,384Z" transform="translate(768 856) rotate(-180)" style="fill:#ffd4cf"/><rect x="152" y="400" width="80" height="48" style="fill:#fb8656"/><path d="M88,136h48a0,0,0,0,1,0,0v24a48,48,0,0,1-48,48h0a0,0,0,0,1,0,0V136A0,0,0,0,1,88,136Z" style="fill:#f15a57"/><path d="M376,136h0a48,48,0,0,1,48,48v24a0,0,0,0,1,0,0H376a0,0,0,0,1,0,0V136A0,0,0,0,1,376,136Z" transform="translate(800 344) rotate(180)" style="fill:#f15a57"/><path d="M448,136l-99.9366,16.6561a560,560,0,0,1-184.1268,0L64,136v-4a20,20,0,0,1,20-20H428a20,20,0,0,1,20,20Z" style="fill:#fdbf67"/></g><rect x="280" y="400" width="80" height="48" transform="translate(640 848) rotate(-180)" style="fill:#fb8656"/><g><path d="M480,208v-2a38.0433,38.0433,0,0,0-38-38H432V146.777l17.3154-2.8859A8,8,0,0,0,456,136v-4a28.0423,28.0423,0,0,0-16.99-25.744l-.6953-3.4752A98.2634,98.2634,0,0,0,342.2178,24H295.5889A28.1662,28.1662,0,0,0,276,16H236a28.1662,28.1662,0,0,0-19.5889,8H192V40h16v64H89.7822a82.2334,82.2334,0,0,1,80-64H176V24h-6.2178a98.2635,98.2635,0,0,0-96.0967,78.78L72.99,106.256A28.0423,28.0423,0,0,0,56,132v4a8,8,0,0,0,6.6846,7.8911L80,146.777V168H70a38.0433,38.0433,0,0,0-38,38v20a38.0433,38.0433,0,0,0,38,38H81.06a68.1829,68.1829,0,0,0,32.1814,46.4276A37.9992,37.9992,0,0,0,96,342.2432v7.873a23.99,23.99,0,0,0,0,35.7677V416h16V392h32v72a32.0364,32.0364,0,0,1-32-32H96a48.054,48.054,0,0,0,48,48v8a8,8,0,0,0,8,8H360a8,8,0,0,0,8-8v-8a48.0547,48.0547,0,0,0,48-48V385.8839a23.99,23.99,0,0,0,0-35.7677v-7.873a37.9992,37.9992,0,0,0-17.2417-31.8156A68.1829,68.1829,0,0,0,430.94,264H442a38.0433,38.0433,0,0,0,38-38v-2H464v2a22.0248,22.0248,0,0,1-22,22H432V184h10a22.0248,22.0248,0,0,1,22,22v2Zm-64-8.804A40.0686,40.0686,0,0,1,384,160v-5.2229l32-5.3334ZM422.2178,104H304V40h38.2178A82.2334,82.2334,0,0,1,422.2178,104ZM224,38.9272a7.9961,7.9961,0,0,0,2.3955-2.123A11.9143,11.9143,0,0,1,236,32h40a11.9143,11.9143,0,0,1,9.6045,4.8042A7.9961,7.9961,0,0,0,288,38.9272V104H224ZM84,120H428a12.02,12.02,0,0,1,11.6875,9.2749l-92.94,15.49a550.7966,550.7966,0,0,1-181.496,0l-92.94-15.49A12.02,12.02,0,0,1,84,120Zm44,34.7771V160a40.0686,40.0686,0,0,1-32,39.196V149.4437ZM48,226V206a22.0248,22.0248,0,0,1,22-22H80v64H70A22.0248,22.0248,0,0,1,48,226Zm61.4473,150a7.981,7.981,0,0,0-1.4414-1.0654,8.0052,8.0052,0,0,1,0-13.8692A8.001,8.001,0,0,0,112,354.1406V342.2432A22.2341,22.2341,0,0,1,134,320h53.8831L224,370.564V392H160V368a7.9964,7.9964,0,0,0-.8447-3.5776l-8-16-14.3106,7.1552L144,369.8887V376ZM352,440H288V408h64Zm-128,0H160V408h64Zm16,18V424h32v34a37.7913,37.7913,0,0,0,7.0325,22h-46.065A37.7913,37.7913,0,0,0,240,458Zm33.49-94.65A7.9961,7.9961,0,0,0,272,368v40H240V368a7.9961,7.9961,0,0,0-1.49-4.65L207.5454,320h96.9092ZM160,480V456h64v2a22.0248,22.0248,0,0,1-22,22Zm150,0a22.0248,22.0248,0,0,1-22-22v-2h64v24Zm58-16V392h32v40A32.0364,32.0364,0,0,1,368,464Zm35.9941-102.9346a8.0052,8.0052,0,0,1,0,13.8692A7.981,7.981,0,0,0,402.5527,376H368v-6.1113l7.1553-14.3111-14.3106-7.1552-8,16A7.9964,7.9964,0,0,0,352,368v24H288V370.564L324.1169,320H378a22.2341,22.2341,0,0,1,22,22.2432v11.8974A8.001,8.001,0,0,0,403.9941,361.0654ZM364,304H148a52.0589,52.0589,0,0,1-52-52V215.43A56.0868,56.0868,0,0,0,144,160v-2.5562l18.6211,3.1036A567.7036,567.7036,0,0,0,256,168.2925a567.7036,567.7036,0,0,0,93.3789-7.7451L368,157.4438V160a56.0868,56.0868,0,0,0,48,55.43V252A52.0589,52.0589,0,0,1,364,304Z"/><path d="M184,176a40.0455,40.0455,0,0,0-40,40h16a24,24,0,0,1,48,0h16A40.0455,40.0455,0,0,0,184,176Z"/><path d="M328,176a40.0455,40.0455,0,0,0-40,40h16a24,24,0,0,1,48,0h16A40.0455,40.0455,0,0,0,328,176Z"/><path d="M256,264a16.0183,16.0183,0,0,1-16-16H224a32,32,0,0,0,64,0H272A16.0183,16.0183,0,0,1,256,264Z"/><rect x="312" y="360" width="24" height="16"/></g></svg>
