<?xml version="1.0" encoding="UTF-8"?>
<svg xmlns="http://www.w3.org/2000/svg" id="Filled" width="512" height="512" viewBox="0 0 512 512"><g><path d="M56,114v86H448V134A110,110,0,0,0,338,24H220a59.9091,59.9091,0,0,0-48.0024,23.9977C163.9976,39.9985,151.9984,32,136,32c0,0,3.2258,16.129,5.5806,32H106A50,50,0,0,0,56,114Z" style="fill:#98b04f"/><path d="M442,176H424v-.2434l-16-47.5132-24,24.2432-40-.04L328,128l-16,24.4153-112-.1111L184,128l-16,24.2812-40-.0378L104,128,88,175.7566V176H70a30,30,0,0,0-30,30v20a30,30,0,0,0,30,30H88.1478A60.0039,60.0039,0,0,0,148,311.7566H364A60.0042,60.0042,0,0,0,423.8523,256H442a30,30,0,0,0,30-30V206A30,30,0,0,0,442,176Z" style="fill:#ffd4cf"/><path d="M408,354.1407V342.2434a30,30,0,0,0-30-30H360V312H152v.2434H134a30,30,0,0,0-30,30v11.8973A15.9939,15.9939,0,0,0,96,368h0a15.994,15.994,0,0,0,8,13.8593V384h48V488H360V384h48v-2.1407A15.994,15.994,0,0,0,416,368h0A15.9939,15.9939,0,0,0,408,354.1407Z" style="fill:#fdbf67"/><polygon points="224 336 224 424 288 424 288 336 256 312 224 336" style="fill:#fffdfb"/><polygon points="336 312 320 368 256 312 336 312" style="fill:#fb8656"/><polygon points="176 312 192 368 256 312 176 312" style="fill:#fb8656"/><path d="M152,384H104v48a40,40,0,0,0,40,40h8Z" style="fill:#ffd4cf"/><path d="M400,384h8a0,0,0,0,1,0,0v88a0,0,0,0,1,0,0H360a0,0,0,0,1,0,0V424A40,40,0,0,1,400,384Z" transform="translate(768 856) rotate(-180)" style="fill:#ffd4cf"/><g><path d="M456,170.6724V134A118.1337,118.1337,0,0,0,338,16H304V32h34A102.1153,102.1153,0,0,1,440,134v34H429.7472l-14.1657-42.0664a8,8,0,0,0-13.267-3.0752L380.666,144.7275l-32.3379-.0332-13.6343-20.832a7.9992,7.9992,0,0,0-6.6914-3.6191H328a8.0006,8.0006,0,0,0-6.6914,3.6152l-13.6279,20.7959-103.3667-.1025-13.6319-20.7071a8,8,0,0,0-6.68-3.6015H184a7.9984,7.9984,0,0,0-6.68,3.5986l-13.626,20.6787-32.3535-.0312-21.6552-21.8741a7.9993,7.9993,0,0,0-13.2705,3.0869L82.2435,168H70a38.1328,38.1328,0,0,0-6,.4739V114a42.0475,42.0475,0,0,1,42-42h35.5806a8,8,0,0,0,7.9135-9.1738c-1.1552-7.7852-2.5024-15.56-3.5922-21.542,7.3032,1.9414,14.1469,6.0791,20.4389,12.3711a8,8,0,0,0,12.0532-.8526A51.6122,51.6122,0,0,1,220,32h68V16H220a67.3719,67.3719,0,0,0-48.792,20.6162C160.6377,28.334,148.6089,24,136,24a8,8,0,0,0-7.8447,9.5693c.0254.127,2.0727,10.3955,4.0669,22.4307H106a58.0656,58.0656,0,0,0-58,58v61.0325A37.98,37.98,0,0,0,32,206v20a38.0433,38.0433,0,0,0,38,38H81.06a68.1817,68.1817,0,0,0,31.9883,46.312A37.9965,37.9965,0,0,0,96,342v8.1162a23.9894,23.9894,0,0,0,0,35.7676V408h16V392h32v72a32.0364,32.0364,0,0,1-32-32v-8H96v8a48.054,48.054,0,0,0,48,48v8a8,8,0,0,0,8,8H304V480H160V368a8,8,0,0,0-.8447-3.5781l-8-16-14.3106,7.1562L144,369.8887V376H109.4473a7.9986,7.9986,0,0,0-1.4414-1.0654,8.0052,8.0052,0,0,1,0-13.8692A8,8,0,0,0,112,354.1406V342a22.0248,22.0248,0,0,1,22-22h35.9653l14.3423,50.1982a8,8,0,0,0,12.96,3.8223L216,357.63V424a8,8,0,0,0,8,8h64a8,8,0,0,0,8-8V357.63l18.7319,16.39a8.0006,8.0006,0,0,0,12.9605-3.8223L342.0347,320H378a22.0248,22.0248,0,0,1,22,22v12.1406a8,8,0,0,0,3.9941,6.9248,8.0052,8.0052,0,0,1,0,13.8692A7.9986,7.9986,0,0,0,402.5527,376H368v-6.1113l7.1553-14.3106-14.3106-7.1562-8,16A8,8,0,0,0,352,368V480H320v16h40a8,8,0,0,0,8-8v-8a48.0547,48.0547,0,0,0,48-48V385.8838a23.9894,23.9894,0,0,0,0-35.7676V342a37.9965,37.9965,0,0,0-17.0485-31.688A68.181,68.181,0,0,0,430.94,264H442a38.0433,38.0433,0,0,0,38-38V206A38.0621,38.0621,0,0,0,456,170.6724ZM368,464V392h32v40A32.0364,32.0364,0,0,1,368,464ZM48,226V206a22.0248,22.0248,0,0,1,22-22H80v64H70A22.0248,22.0248,0,0,1,48,226ZM196.2266,353.6719,186.6061,320h48.1025l-18.2857,16H216v.37ZM280,416H232V343.63l24-21,24,21Zm35.7734-62.3281L296,336.37V336h-.4229l-18.2856-16h48.1023ZM364,304H148a52.0589,52.0589,0,0,1-52-52V177.3047l11.4575-34.1983,14.8574,15.0079a7.996,7.996,0,0,0,5.6773,2.372l40,.0381H168a7.9991,7.9991,0,0,0,6.68-3.5986l9.3164-14.1387,9.3213,14.1592a8.0005,8.0005,0,0,0,6.6743,3.6016l112,.11H312a8.0015,8.0015,0,0,0,6.6914-3.6152l9.3042-14.1973,9.3106,14.2256a8.0008,8.0008,0,0,0,6.686,3.6191l40,.04H384a7.998,7.998,0,0,0,5.6855-2.3721l14.8731-15.0244L416,177.3105V252A52.0589,52.0589,0,0,1,364,304Zm100-78a22.0248,22.0248,0,0,1-22,22H432V184h10a22.0248,22.0248,0,0,1,22,22Z"/><path d="M256,264a16.0183,16.0183,0,0,1-16-16H224a32,32,0,0,0,64,0H272A16.0183,16.0183,0,0,1,256,264Z"/><path d="M184,176a40.0455,40.0455,0,0,0-40,40h16a24,24,0,0,1,48,0h16A40.0455,40.0455,0,0,0,184,176Z"/><path d="M328,176a40.0455,40.0455,0,0,0-40,40h16a24,24,0,0,1,48,0h16A40.0455,40.0455,0,0,0,328,176Z"/><rect x="248" y="352" width="16" height="16"/><rect x="248" y="384" width="16" height="16"/></g></g></svg>
