<svg id="Filled" height="512" viewBox="0 0 512 512" width="512" xmlns="http://www.w3.org/2000/svg"><path d="m442 176h-18v-40h-336v40h-18a30 30 0 0 0 -30 30v20a30 30 0 0 0 30 30h18.1315a60.0035 60.0035 0 0 0 59.8685 56h216a60.0033 60.0033 0 0 0 59.8684-56h18.1316a30 30 0 0 0 30-30v-20a30 30 0 0 0 -30-30z" fill="#ffd4cf"/><path d="m152 24h208a80 80 0 0 1 80 80v2a30 30 0 0 1 -30 30h-308a30 30 0 0 1 -30-30v-2a80 80 0 0 1 80-80z" fill="#80303e"/><path d="m321.11 136c56-80-64-112-64-112h-2.22s-120 32-64 112z" fill="#b34356"/><path d="m378 312.2433h-18v-.2433h-208v.2433h-18a30 30 0 0 0 -30 30v73.7567h48v72h208v-72h48v-73.7567a30 30 0 0 0 -30-30z" fill="#f2f2f2"/><path d="m360 488h-208v-72l-16-104h48l72 128 72-128h48l-16 104z" fill="#333"/><path d="m104 416h48a0 0 0 0 1 0 0v56a0 0 0 0 1 0 0h-8a40 40 0 0 1 -40-40v-16a0 0 0 0 1 0 0z" fill="#ffd4cf"/><path d="m400 416h8a0 0 0 0 1 0 0v56a0 0 0 0 1 0 0h-48a0 0 0 0 1 0 0v-16a40 40 0 0 1 40-40z" fill="#ffd4cf" transform="matrix(-1 0 0 -1 768 888)"/><path d="m168 312 16 56 72-56z" fill="#f2f2f2"/><path d="m344 312-16 56-72-56z" fill="#f2f2f2"/><path d="m272 368h64v32h-64z" fill="#fdbf67"/><path d="m88 192h24l32-56h-56z" fill="#99333f"/><path d="m424 192h-24l-32-56h56z" fill="#99333f"/><g><path d="m442 168h-10v-31.0324a37.98 37.98 0 0 0 16-30.9676v-2a88.1 88.1 0 0 0 -88-88h-208a87.3265 87.3265 0 0 0 -70.4023 35.1953l12.7929 9.6094a71.4616 71.4616 0 0 1 57.6094-28.8047h6.7737c-17.5021 9.725-35.9932 24.2943-43.4133 44.6387-5.8726 16.1018-4.0884 33.3289 5.2872 51.3613h-18.6476a22.0248 22.0248 0 0 1 -22-22v-2a71.4886 71.4886 0 0 1 5.9873-28.7969l-14.6611-6.4062a87.3847 87.3847 0 0 0 -7.3262 35.2031v2a37.98 37.98 0 0 0 16 30.9676v31.0324h-10a38.0433 38.0433 0 0 0 -38 38v20a38.0433 38.0433 0 0 0 38 38h11.06a68.1832 68.1832 0 0 0 32.1816 46.4276 37.9993 37.9993 0 0 0 -17.2416 31.8156v89.7568a48.0543 48.0543 0 0 0 48 48v8a8 8 0 0 0 8 8h24v-16h-16v-80a7.9963 7.9963 0 0 0 -.1289-1.4312l-14.2411-78.5688h16.3353l14.3422 50.1978a8 8 0 0 0 12.604 4.1171l14.5822-11.3416 44.5063 79.1222v37.9045h-56v16h168a8 8 0 0 0 8-8v-8a48.0543 48.0543 0 0 0 48-48v-89.7568a38 38 0 0 0 -17.2434-31.8167 67.8521 67.8521 0 0 0 15.1091-12.1941l-11.73-10.8808a52.1742 52.1742 0 0 1 -38.1357 16.6484h-216a52.0589 52.0589 0 0 1 -52-52v-52h16a7.9991 7.9991 0 0 0 6.9458-4.0308l29.6967-51.9692h214.7149l29.6968 51.9692a7.9991 7.9991 0 0 0 6.9458 4.0308h16v52a52.094 52.094 0 0 1 -5.9932 24.2612l14.1455 7.4776a67.8834 67.8834 0 0 0 6.7791-19.7388h11.0686a38.0433 38.0433 0 0 0 38-38v-20a38.0433 38.0433 0 0 0 -38-38zm-162 224v-16h48v16zm11.8213-32h-19.8213a8 8 0 0 0 -8 8v32a7.9729 7.9729 0 0 0 2.2137 5.5244l-10.2137 18.1577-39.7358-70.6413 39.7358-30.9058 39.7358 30.9058zm76.1787 104v-40h32v8a32.0361 32.0361 0 0 1 -32 32zm32-56h-32v-7.2788l14.5466-80.0051a22.0376 22.0376 0 0 1 17.4534 21.5271zm-33.63-88-14.241 78.5688a7.9963 7.9963 0 0 0 -.129 1.4312v80h-88v-37.9045l19.1787-34.0955h52.8213a8 8 0 0 0 8-8v-32a8.0029 8.0029 0 0 0 -5.5073-7.6035l11.542-40.3965zm-32.9759 0-9.832 34.4131-44.2457-34.4131zm-100.71 0-44.2461 34.4131-9.832-34.4131zm-120.6841 22.2432a22.0376 22.0376 0 0 1 17.4534-21.5271l14.5466 80.0051v7.2788h-32zm0 89.7568v-8h32v40a32.0361 32.0361 0 0 1 -32-32zm320-328v2a22.0248 22.0248 0 0 1 -22 22h-18.6477c9.3757-18.0324 11.16-35.2595 5.2873-51.3613-7.4196-20.3444-25.9112-34.9137-43.4133-44.6387h6.7737a72.0812 72.0812 0 0 1 72 72zm-96.6477 24c9.3757-18.0324 11.16-35.2595 5.2873-51.3613-7.4196-20.3444-25.9112-34.9137-43.4133-44.6387h14.7719a175.7324 175.7324 0 0 1 30.391 12.3506c14.36 7.5259 32.8227 20.1929 39.2295 37.7993 4.9792 13.6845 2.0283 29.0941-8.7681 45.85zm-148.971-45.85c11.6575-32.036 62.0318-47.922 69.6207-50.1489a175.739 175.739 0 0 1 30.3872 12.3495c14.36 7.5259 32.8227 20.1929 39.2295 37.7993 4.9792 13.6845 2.0283 29.0941-8.7681 45.85h-121.7006c-10.7969-16.7559-13.7479-32.1655-8.7687-45.8499zm-56 0c11.6593-32.0414 62.0487-47.9273 69.6244-50.15h14.768c-17.5021 9.725-35.9932 24.2943-43.4133 44.6387-5.8726 16.1018-4.0884 33.3289 5.2872 51.3613h-37.4976c-10.7969-16.756-13.7479-32.1656-8.7687-45.85zm-82.3813 143.85v-20a22.0248 22.0248 0 0 1 22-22h10v64h-10a22.0248 22.0248 0 0 1 -22-22zm59.3574-42h-11.3574v-40h34.2144zm297.2852 0-22.857-40h34.2144v40zm59.3574 42a22.0248 22.0248 0 0 1 -22 22h-10v-64h10a22.0248 22.0248 0 0 1 22 22z"/><path d="m256 280a32.0361 32.0361 0 0 0 32-32h-16a16 16 0 0 1 -32 0h-16a32.0361 32.0361 0 0 0 32 32z"/><path d="m184 176a40.0451 40.0451 0 0 0 -40 40h16a24 24 0 0 1 48 0h16a40.0451 40.0451 0 0 0 -40-40z"/><path d="m288 216h16a24 24 0 0 1 48 0h16a40 40 0 0 0 -80 0z"/></g></svg>