<?xml version="1.0" encoding="UTF-8"?>
<svg xmlns="http://www.w3.org/2000/svg" id="Filled" width="512" height="512" viewBox="0 0 512 512"><g><g><path d="M408,354.1407V342.2434a30,30,0,0,0-30-30H360V312H152v.2434H134a30,30,0,0,0-30,30v11.8973A15.9939,15.9939,0,0,0,96,368h0a15.994,15.994,0,0,0,8,13.8593V384h48V488H360V384h48v-2.1407A15.994,15.994,0,0,0,416,368h0A15.9939,15.9939,0,0,0,408,354.1407Z" style="fill:#333"/><path d="M328,488H184l7.2132-7.2132A30,30,0,0,0,200,459.5736V312H312V459.5736a30,30,0,0,0,8.7868,21.2132Z" style="fill:#ffd4cf"/><g><path d="M152,384H104v48a40,40,0,0,0,40,40h8Z" style="fill:#ffd4cf"/><path d="M400,384h8a0,0,0,0,1,0,0v88a0,0,0,0,1,0,0H360a0,0,0,0,1,0,0V424A40,40,0,0,1,400,384Z" transform="translate(768 856) rotate(-180)" style="fill:#ffd4cf"/><path d="M312,56l32-32h24V48s-40,24-32,24H312Z" style="fill:#fdbf67"/><path d="M154,72H358a90,90,0,0,1,90,90v14a0,0,0,0,1,0,0H64a0,0,0,0,1,0,0V162A90,90,0,0,1,154,72Z" style="fill:#b34356"/><path d="M248,24h16a48,48,0,0,1,48,48v0a0,0,0,0,1,0,0H200a0,0,0,0,1,0,0v0A48,48,0,0,1,248,24Z" style="fill:#b34356"/><path d="M202.7314,56A47.923,47.923,0,0,0,200,72H312a47.923,47.923,0,0,0-2.7314-16Z" style="fill:#80303e"/><path d="M442,176H423a50.0171,50.0171,0,0,0-49-40H325.2793a90,90,0,0,0-63.64,26.36L256,168l-5.64-5.64a90,90,0,0,0-63.64-26.36H138a50.0171,50.0171,0,0,0-48.9995,40H70a30,30,0,0,0-30,30v20a30,30,0,0,0,30,30H88.1316A60.0033,60.0033,0,0,0,148,312H364a60.0033,60.0033,0,0,0,59.8684-56H442a30,30,0,0,0,30-30V206A30,30,0,0,0,442,176Z" style="fill:#ffd4cf"/></g><path d="M364,272H311.4375a64.0206,64.0206,0,0,0-110.875,0H148a60,60,0,0,1-60-60v40a60,60,0,0,0,60,60h31.2261c-1.5327,8.4338-.6936,16.9143,4.7739,24l34.5767-8s0,24,37.0376,40c37.0376-16,37.0376-40,37.0376-40L328,336c5.4675-7.0858,6.2393-15.5663,4.6118-24H364a60,60,0,0,0,60-60V212A60,60,0,0,1,364,272Z" style="fill:#b34356"/></g><g><path d="M456,170.6724V162a98.111,98.111,0,0,0-98-98h-.5161c4.6843-3.0425,9.834-6.2607,14.6323-9.14A8.0007,8.0007,0,0,0,376,48V24a8,8,0,0,0-8-8H344a8.0007,8.0007,0,0,0-5.6572,2.3433L312.5583,44.1276A56.0352,56.0352,0,0,0,264,16H248a56.0865,56.0865,0,0,0-55.43,48H154A97.43,97.43,0,0,0,98.2012,81.4268l9.12,13.1464A81.5015,81.5015,0,0,1,154,80H358a82.0931,82.0931,0,0,1,82,82v6H429.1414A58.1039,58.1039,0,0,0,374,128H325.2793A97.3556,97.3556,0,0,0,256,156.6865,97.3535,97.3535,0,0,0,186.7207,128H138a58.1039,58.1039,0,0,0-55.1414,40H72v-6a81.7307,81.7307,0,0,1,21.8652-55.748l-11.73-10.8809A97.68,97.68,0,0,0,56,162v8.6724A38.0621,38.0621,0,0,0,32,206v20a38.0433,38.0433,0,0,0,38,38H81.06a68.1829,68.1829,0,0,0,32.1814,46.4276A37.9992,37.9992,0,0,0,96,342.2432v7.873a23.99,23.99,0,0,0,0,35.7677V432a48.0547,48.0547,0,0,0,48,48v8a8,8,0,0,0,8,8h64V480H200.9675A37.7913,37.7913,0,0,0,208,458V440h28a27.9179,27.9179,0,0,0,20-8.4229A27.9179,27.9179,0,0,0,276,440h28v18a37.7913,37.7913,0,0,0,7.0325,22H232v16H360a8,8,0,0,0,8-8v-8a48.054,48.054,0,0,0,48-48v-8H400v8a32.0364,32.0364,0,0,1-32,32V392h32v16h16V385.8839a23.99,23.99,0,0,0,0-35.7677v-7.873a37.9992,37.9992,0,0,0-17.2417-31.8156A68.1829,68.1829,0,0,0,430.94,264H442a38.0433,38.0433,0,0,0,38-38V206A38.0621,38.0621,0,0,0,456,170.6724ZM347.3135,32H360V43.5044c-3.2939,2.0244-8.26,5.12-13.2422,8.3877-5.0322,3.3013-9.0371,6.0976-11.9023,8.3115A39.6217,39.6217,0,0,0,330.4341,64H319.43q-.2538-1.7677-.6169-3.499Zm-138.51,32A40.0706,40.0706,0,0,1,248,32h16a40.0706,40.0706,0,0,1,39.1963,32ZM48,226V206a22.0248,22.0248,0,0,1,22-22H80v64H70A22.0248,22.0248,0,0,1,48,226Zm48-40a42.0475,42.0475,0,0,1,42-42h48.7207a81.4608,81.4608,0,0,1,57.9824,24.0171l5.64,5.64a8.001,8.001,0,0,0,11.3144,0l5.64-5.64A81.4608,81.4608,0,0,1,325.2793,144H374a42.0475,42.0475,0,0,1,42,42v26a52.0589,52.0589,0,0,1-52,52H315.873a72.0121,72.0121,0,0,0-119.746,0H148a52.0589,52.0589,0,0,1-52-52Zm16,246V392h32v72A32.0364,32.0364,0,0,1,112,432Zm48,48V368a7.9964,7.9964,0,0,0-.8447-3.5776l-8-16-14.3106,7.1552L144,369.8887V376H109.4473a7.981,7.981,0,0,0-1.4414-1.0654,8.0052,8.0052,0,0,1,0-13.8692A8.001,8.001,0,0,0,112,354.1406V342.2432A22.2341,22.2341,0,0,1,134,320h36.543a34.34,34.34,0,0,0,7.123,20.8872,8.001,8.001,0,0,0,8.1377,2.9067L192,342.36V458a22.0248,22.0248,0,0,1-22,22Zm116-56a12.0134,12.0134,0,0,1-12-12V392H248v20a12.0134,12.0134,0,0,1-12,12H208V338.6584l4.4922-1.0393c3.4424,10.1138,13.0654,26.1114,39.9492,37.7251a8.0032,8.0032,0,0,0,6.3457,0c26.917-11.6279,36.53-27.65,39.9619-37.7622L304,338.7705V424Zm127.9941-62.9346a8.0052,8.0052,0,0,1,0,13.8692A7.981,7.981,0,0,0,402.5527,376H368v-6.1113l7.1553-14.3111-14.3106-7.1552-8,16A7.9964,7.9964,0,0,0,352,368V480H342a22.0248,22.0248,0,0,1-22-22V342.3917l6.2344,1.411a8.0054,8.0054,0,0,0,8.1-2.9155A33.91,33.91,0,0,0,341.375,320H378a22.2341,22.2341,0,0,1,22,22.2432v11.8974A8.001,8.001,0,0,0,403.9941,361.0654ZM364,304H332.6113a7.9988,7.9988,0,0,0-7.8545,9.5161c1.0069,5.2168.7813,9.6406-.6963,13.39l-29.6425-6.7089a7.94,7.94,0,0,0-6.876,1.4985,7.7213,7.7213,0,0,0-2.8916,6.24c-.085,1.481-1.6553,18.2974-29.0361,31.2842-27.3809-12.9868-28.9512-29.8032-29.0362-31.2842a7.7233,7.7233,0,0,0-2.9062-6.2519,7.9355,7.9355,0,0,0-6.8994-1.4775l-28.8575,6.6767c-1.5048-3.7695-1.7695-8.2134-.8173-13.4521A8.0006,8.0006,0,0,0,179.2266,304H148a52.0708,52.0708,0,0,1-51.8516-48.0527A67.88,67.88,0,0,0,148,280h52.5625a8,8,0,0,0,6.9248-3.9941,56.0206,56.0206,0,0,1,97.0254,0A8,8,0,0,0,311.4375,280H364a67.88,67.88,0,0,0,51.8516-24.0527A52.0708,52.0708,0,0,1,364,304Zm100-78a22.0248,22.0248,0,0,1-22,22H432V184h10a22.0248,22.0248,0,0,1,22,22Z"/><path d="M184,192a24.0272,24.0272,0,0,1,24,24h16a40,40,0,0,0-80,0h16A24.0272,24.0272,0,0,1,184,192Z"/><path d="M328,192a24.0272,24.0272,0,0,1,24,24h16a40,40,0,0,0-80,0h16A24.0272,24.0272,0,0,1,328,192Z"/><path d="M256,288a16.0183,16.0183,0,0,1-16-16H224a32,32,0,0,0,64,0H272A16.0183,16.0183,0,0,1,256,288Z"/></g></g></svg>
