<?xml version="1.0" encoding="UTF-8"?>
<svg xmlns="http://www.w3.org/2000/svg" id="Filled" width="512" height="512" viewBox="0 0 512 512"><path d="M448,152H56L74.8484,89.1719A40,40,0,0,1,96.2461,64.4185l56.17-26.2125a150,150,0,0,1,98.6289-9.8849L407.1715,66.0069a40,40,0,0,1,29.8376,31.0387Z" style="fill:#fdbf67"/><path d="M108.4856,184h-56L48.187,145.3129A30,30,0,0,1,78.0036,112h30.482Z" style="fill:#fb8656"/><path d="M403.5144,184h56l4.2986-38.6871A30,30,0,0,0,433.9964,112h-30.482Z" style="fill:#fb8656"/><g><path d="M378,312.2433H360V312H152v.2433H134a30,30,0,0,0-30,30V416h48v72H360V416h48V342.2433A30,30,0,0,0,378,312.2433Z" style="fill:#2471d6"/><path d="M344,488H168l23.2132-23.2132A30,30,0,0,0,200,443.5736V312H312V443.5736a30,30,0,0,0,8.7868,21.2132Z" style="fill:#f6f9fd"/><path d="M104,416h48a0,0,0,0,1,0,0v56a0,0,0,0,1,0,0h-8a40,40,0,0,1-40-40V416a0,0,0,0,1,0,0Z" style="fill:#ffd4cf"/><path d="M400,416h8a0,0,0,0,1,0,0v56a0,0,0,0,1,0,0H360a0,0,0,0,1,0,0V456A40,40,0,0,1,400,416Z" transform="translate(768 888) rotate(-180)" style="fill:#ffd4cf"/><polygon points="240 312 224 448 256 488 288 448 272 312 240 312" style="fill:#fdbf67"/><path d="M442,176H424V144.76a40,40,0,0,0-53.4534-37.67L312,128,135.0316,96.3985A40,40,0,0,0,88,135.7756V176H70a30,30,0,0,0-30,30v20a30,30,0,0,0,30,30H88.1315A60.0035,60.0035,0,0,0,148,312H364a60.0035,60.0035,0,0,0,59.8685-56H442a30,30,0,0,0,30-30V206A30,30,0,0,0,442,176Z" style="fill:#ffd4cf"/></g><polygon points="168 312 184 368 256 312 168 312" style="fill:#f2f2f2"/><polygon points="344 312 328 368 256 312 344 312" style="fill:#f2f2f2"/><g><path d="M468.1769,178.4791l3.5873-32.2828a37.9859,37.9859,0,0,0-24.7444-39.89l-2.1658-10.83A48.157,48.157,0,0,0,409.0483,58.23L385.877,52.6367,382.123,68.19l23.1709,5.5933a32.1036,32.1036,0,0,1,23.8707,24.8306L430.2416,104H409.3559a47.3508,47.3508,0,0,0-41.0067-4.6165c-1.4978-14.3676-9.1852-27.9127-22.7338-40.005l20.5076,4.95,3.754-15.5537L252.9219,20.5444a158.0091,158.0091,0,0,0-49.665-3.8733c-.2551-.0932-.4449-.1616-.566-.2048l-.0924.2586a158.1926,158.1926,0,0,0-53.5663,14.2316L92.8628,57.1689A48.0461,48.0461,0,0,0,67.186,86.873l-6.3728,21.2428a37.98,37.98,0,0,0-20.5774,38.0805l3.5873,32.2828A37.8969,37.8969,0,0,0,32,206v20a38.0433,38.0433,0,0,0,38,38H81.06a68.1832,68.1832,0,0,0,32.1816,46.4276A37.9993,37.9993,0,0,0,96,342.2432V368h16V342.2432A22.2341,22.2341,0,0,1,134,320h27.9654l14.3422,50.1978a8,8,0,0,0,12.604,4.1171L192,371.9128V438a42.0753,42.0753,0,0,1-32,40.7971V400a8.0235,8.0235,0,0,0-.1089-1.3154l-8-48-15.7822,2.6308L144,400.6621V408H112V384H96v48a48.0543,48.0543,0,0,0,48,48v8a8.0032,8.0032,0,0,0,6,7.748V496q.7341,0,1.4639-.0183c.1773.0117.3559.0183.5361.0183H288V480H272.6451l21.602-27.0024a8.0008,8.0008,0,0,0,1.6982-5.9322L283.7905,343.75,304,359.4685V438a57.8429,57.8429,0,0,0,18.0392,42H304v16h56c.18,0,.3588-.0066.5361-.0183Q361.2659,496,362,496v-.252A8.0032,8.0032,0,0,0,368,488v-8a48.0543,48.0543,0,0,0,48-48V342.2432a37.9993,37.9993,0,0,0-17.2418-31.8156A68.1832,68.1832,0,0,0,430.94,264H442a38.0433,38.0433,0,0,0,38-38V206A37.8969,37.8969,0,0,0,468.1769,178.4791Zm-17.7877-51.1515a21.7333,21.7333,0,0,1,5.4726,17.1021L453.06,169.642A37.876,37.876,0,0,0,442,168H432V144.76A47.6968,47.6968,0,0,0,425.2029,120h8.7937A21.7339,21.7339,0,0,1,450.3892,127.3276ZM249.1675,36.0981l44.5487,10.7532-.246.7381c.6242.2078,59.4291,20.2617,59.137,57.413l-33.5744,11.9908c-6.5854-37.3048-45.5036-65.4448-76.5725-82.3411Q245.8271,35.2925,249.1675,36.0981Zm-17.4016,69.4477c-1.6546-22.6713-12.0529-43.4437-30.3225-60.4081A121.17,121.17,0,0,0,188.63,34.794q6.1457-1.1961,12.3755-1.8509A305.9811,305.9811,0,0,1,251.6738,58.73c21.187,13.62,45.985,34.4314,51.2937,59.5308ZM82.5112,91.4707A32.03,32.03,0,0,1,99.6294,71.668l56.1694-26.2124q5.7411-2.6793,11.6822-4.8239a106.6505,106.6505,0,0,1,23.4428,16.5739c14.089,13.2169,22.2969,28.46,24.4821,45.4187L136.438,88.5229A48.05,48.05,0,0,0,92.0182,104H78.7524ZM56.1382,144.43A22,22,0,0,1,78.0034,120H82.655A48.04,48.04,0,0,0,80,135.7754V168H70a37.876,37.876,0,0,0-11.06,1.642ZM48,226V206a22.0248,22.0248,0,0,1,22-22H80v64H70A22.0248,22.0248,0,0,1,48,226ZM188.438,354.4131,178.606,320h52.3975l-.1691,1.4382ZM112,432v-8h32v40A32.0361,32.0361,0,0,1,112,432Zm77.9608,48A57.8429,57.8429,0,0,0,208,438V359.4685L228.21,343.75,216.0547,447.0654a8.0008,8.0008,0,0,0,1.6982,5.9322L239.3549,480Zm89.7033-34.3862L256,475.1938l-23.6641-29.58,13.6067-115.6563L256,322.135l10.0574,7.8225ZM280.9965,320H333.394l-9.832,34.4131-42.3964-32.9749ZM368,464V424h32v8A32.0361,32.0361,0,0,1,368,464Zm32-56H368v-7.3379l7.8911-47.3467-15.7822-2.6308-8,48A8.0235,8.0235,0,0,0,352,400v78.7971A42.0753,42.0753,0,0,1,320,438V371.9128l3.0884,2.4021a8.0005,8.0005,0,0,0,12.604-4.1171L350.0346,320H378a22.2341,22.2341,0,0,1,22,22.2432ZM364,304H148a52.0589,52.0589,0,0,1-52-52V135.7754a32,32,0,0,1,37.6255-31.5015l176.9683,31.6016a8.0131,8.0131,0,0,0,4.0971-.3418l58.5459-20.9092A32,32,0,0,1,416,144.76V252A52.0589,52.0589,0,0,1,364,304Zm100-78a22.0248,22.0248,0,0,1-22,22H432V184h10a22.0248,22.0248,0,0,1,22,22Z"/><path d="M256,264a16.0183,16.0183,0,0,1-16-16H224a32,32,0,0,0,64,0H272A16.0183,16.0183,0,0,1,256,264Z"/><path d="M184,176a40.0451,40.0451,0,0,0-40,40h16a24,24,0,0,1,48,0h16A40.0451,40.0451,0,0,0,184,176Z"/><path d="M328,176a40.0451,40.0451,0,0,0-40,40h16a24,24,0,0,1,48,0h16A40.0451,40.0451,0,0,0,328,176Z"/></g></svg>
